<?xml version="1.0" standalone="no"?>
<!DOCTYPE svg PUBLIC "-//W3C//DTD SVG 20010904//EN"
 "http://www.w3.org/TR/2001/REC-SVG-20010904/DTD/svg10.dtd">
<svg version="1.0" xmlns="http://www.w3.org/2000/svg"
 width="467.000000pt" height="384.000000pt" viewBox="0 0 467.000000 384.000000"
 preserveAspectRatio="xMidYMid meet">

<g transform="translate(0.000000,384.000000) scale(0.100000,-0.100000)"
fill="#000000" stroke="none">
<path d="M2220 3809 c-25 -5 -76 -24 -115 -43 -118 -59 -207 -159 -253 -290
l-26 -71 -3 -1095 c-1 -602 -2 -1097 -3 -1100 0 -3 -194 -4 -432 -2 -238 1
-471 -2 -518 -7 -179 -20 -294 -77 -430 -211 -166 -165 -305 -422 -399 -739
-40 -135 -41 -183 -2 -222 l29 -29 842 0 c558 0 848 3 861 10 30 17 49 64 49
124 l0 55 818 3 817 3 58 24 c137 55 250 163 304 290 l28 66 3 387 c2 295 6
388 15 388 7 0 173 1 369 2 l357 3 30 29 31 30 0 260 c0 283 -5 322 -57 424
-36 73 -133 172 -201 206 -100 51 -187 66 -374 66 l-168 0 2 218 3 217 365 5
c201 3 373 9 382 13 45 23 48 42 48 315 0 284 -5 316 -63 425 -60 113 -203
218 -335 246 -65 13 -1963 14 -2032 0z m1490 -186 c0 -5 -15 -55 -32 -113
l-33 -105 -5 -1395 -5 -1395 -27 -51 c-117 -221 -424 -218 -538 5 -12 24 -26
84 -34 147 -19 144 -62 232 -160 329 -39 39 -95 83 -125 99 -101 54 -133 59
-431 63 l-275 4 0 1107 c0 1066 1 1108 19 1142 37 68 77 109 138 139 l61 31
724 0 c397 0 723 -3 723 -7z m558 -33 c69 -35 115 -83 145 -149 18 -39 21 -72
25 -228 l4 -181 -53 -7 c-30 -3 -162 -5 -294 -3 l-240 3 0 180 c1 197 7 230
56 291 94 119 233 155 357 94z m-41 -1445 c108 -32 183 -117 202 -229 6 -34
11 -131 11 -214 l0 -152 -295 0 -295 0 0 153 c0 200 10 257 56 324 74 108 199
154 321 118z m-1570 -1174 c45 -22 123 -103 148 -151 10 -19 24 -79 31 -134
11 -79 23 -120 54 -184 22 -46 40 -88 40 -93 0 -5 -223 -9 -535 -9 -421 0
-535 3 -535 13 0 23 86 224 120 283 19 32 67 90 105 129 105 105 226 162 374
174 88 7 145 0 198 -28z m-689 -6 c2 -14 -20 -40 -72 -88 -132 -119 -219 -320
-259 -602 l-12 -90 -693 -3 c-781 -2 -711 -11 -671 78 11 25 35 83 54 130 127
331 321 550 519 590 23 4 286 7 586 6 537 -1 545 -1 548 -21z"/>
<path d="M2430 2915 l0 -105 410 0 410 0 0 105 0 105 -410 0 -410 0 0 -105z"/>
<path d="M2434 2407 c-2 -7 -3 -56 -2 -108 l3 -94 405 0 405 0 0 105 0 105
-403 3 c-328 2 -403 0 -408 -11z"/>
<path d="M2430 1705 l0 -105 410 0 410 0 0 105 0 105 -410 0 -410 0 0 -105z"/>
</g>
</svg>
